<mxfile host="app.diagrams.net" modified="2023-06-04T11:45:59.491Z" agent="Mozilla/5.0 (Windows NT 10.0; Win64; x64) AppleWebKit/537.36 (KHTML, like Gecko) Chrome/110.0.0.0 YaBrowser/23.3.4.605 Yowser/2.5 Safari/537.36" version="21.1.8" etag="4qjWcnsMHPROhUiBBSHq" type="github">
  <diagram name="Страница 1" id="nYyTyA_Uliut5_isOq3t">
    <mxGraphModel>
      <root>
        <mxCell id="0" />
        <mxCell id="1" parent="0" />
      </root>
    </mxGraphModel>
  </diagram>
</mxfile>
